<svg xmlns="http://www.w3.org/2000/svg" viewBox="0 0 512 512">
  <defs>
    <linearGradient id="gm" x1="35%" y1="0%" x2="65%" y2="100%">
      <stop offset="0%"   stop-color="#f5f0ff"/>
      <stop offset="35%"  stop-color="#c084fc"/>
      <stop offset="100%" stop-color="#4c1d95"/>
    </linearGradient>
    <radialGradient id="gg" cx="32%" cy="16%" r="58%">
      <stop offset="0%"   stop-color="white" stop-opacity="0.52"/>
      <stop offset="55%"  stop-color="white" stop-opacity="0.07"/>
      <stop offset="100%" stop-color="white" stop-opacity="0"/>
    </radialGradient>
    <filter id="glow" x="-30%" y="-30%" width="160%" height="160%">
      <feDropShadow dx="0" dy="5" stdDeviation="22" flood-color="#a855f7" flood-opacity="0.6"/>
    </filter>
  </defs>
  <path d="M303,92 Q310,68 290,87 L114,257 Q94,276 126,276 L213,276 Q245,276 236,299 L184,421 Q175,444 197,426 L396,254 Q418,236 386,236 L299,236 Q267,236 274,213 Z"
    fill="#a855f7" filter="url(#glow)" opacity="0.7"/>
  <path d="M303,92 Q310,68 290,87 L114,257 Q94,276 126,276 L213,276 Q245,276 236,299 L184,421 Q175,444 197,426 L396,254 Q418,236 386,236 L299,236 Q267,236 274,213 Z"
    fill="url(#gm)"/>
  <path d="M303,92 Q310,68 290,87 L114,257 Q94,276 126,276 L213,276 Q245,276 236,299 L184,421 Q175,444 197,426 L396,254 Q418,236 386,236 L299,236 Q267,236 274,213 Z"
    fill="url(#gg)"/>
  <path d="M303,92 Q310,68 290,87 L114,257 Q94,276 126,276 L129,276"
    fill="none" stroke="rgba(255,255,255,0.55)" stroke-width="5" stroke-linecap="round"/>
  <path d="M299,236 Q267,236 274,213"
    fill="none" stroke="rgba(255,255,255,0.22)" stroke-width="3" stroke-linecap="round"/>
</svg>
